<svg width="30" height="30" viewBox="0 0 30 30" fill="none" xmlns="http://www.w3.org/2000/svg">
<path fill-rule="evenodd" clip-rule="evenodd" d="M22.3585 15.1831C21.8985 15.1831 21.4973 14.8443 21.431 14.3756C21.3598 13.8618 21.716 13.3881 22.2298 13.3168C23.5298 13.1343 24.511 12.0068 24.5135 10.6918C24.5135 9.38807 23.5785 8.28557 22.2898 8.07432C21.7798 7.99057 21.4335 7.50807 21.5173 6.99682C21.6023 6.48557 22.081 6.14307 22.5948 6.22432C24.7923 6.58557 26.3885 8.46557 26.3885 10.6943C26.3835 12.9381 24.7073 14.8631 22.4885 15.1743C22.4448 15.1806 22.401 15.1831 22.3585 15.1831Z" fill="#9AA8BD"/>
<mask id="mask0_335_5241" style="mask-type:luminance" maskUnits="userSpaceOnUse" x="23" y="17" width="6" height="7">
<path fill-rule="evenodd" clip-rule="evenodd" d="M23.7227 17.5021H28.4651V23.164H23.7227V17.5021Z" fill="white"/>
</mask>
<g mask="url(#mask0_335_5241)">
<path fill-rule="evenodd" clip-rule="evenodd" d="M26.0767 23.164C25.6992 23.164 25.343 22.934 25.2005 22.5603C25.0155 22.0765 25.2592 21.534 25.743 21.3503C26.5905 21.0278 26.5905 20.6715 26.5905 20.5003C26.5905 19.9528 25.8942 19.5703 24.5217 19.3653C24.0105 19.2878 23.6567 18.8115 23.733 18.2978C23.8092 17.7853 24.2842 17.444 24.8005 17.5103C27.8292 17.964 28.4655 19.3865 28.4655 20.5003C28.4655 21.1803 28.198 22.4215 26.4105 23.1028C26.3005 23.144 26.188 23.164 26.0767 23.164Z" fill="#9AA8BD"/>
</g>
<path fill-rule="evenodd" clip-rule="evenodd" d="M14.8584 19.8925C11.8884 19.8925 8.34711 20.2575 8.34711 21.995C8.34711 23.7462 11.8884 24.1137 14.8584 24.1137C17.8284 24.1137 21.3684 23.75 21.3684 22.0162C21.3684 20.2612 17.8284 19.8925 14.8584 19.8925ZM14.8584 25.9887C12.7846 25.9887 6.47211 25.9887 6.47211 21.995C6.47211 18.0175 12.7846 18.0175 14.8584 18.0175C16.9321 18.0175 23.2434 18.0175 23.2434 22.0162C23.2434 25.9887 17.1521 25.9887 14.8584 25.9887Z" fill="#9AA8BD"/>
<path fill-rule="evenodd" clip-rule="evenodd" d="M14.8584 6.875C12.7434 6.875 11.0234 8.59625 11.0234 10.7112C11.0196 11.7362 11.4121 12.695 12.1309 13.4187C12.8496 14.1425 13.8071 14.5437 14.8271 14.5475L14.8584 15.485V14.5475C16.9734 14.5475 18.6946 12.8275 18.6946 10.7112C18.6946 8.59625 16.9734 6.875 14.8584 6.875ZM14.8584 16.4225H14.8246C13.2996 16.4175 11.8709 15.82 10.8009 14.74C9.72836 13.6613 9.14211 12.2288 9.14836 10.7075C9.14836 7.5625 11.7096 5 14.8584 5C18.0084 5 20.5696 7.5625 20.5696 10.7112C20.5696 13.86 18.0084 16.4225 14.8584 16.4225Z" fill="#9AA8BD"/>
<path fill-rule="evenodd" clip-rule="evenodd" d="M7.35712 15.1832C7.31462 15.1832 7.27087 15.1807 7.22712 15.1744C5.00837 14.8632 3.33337 12.9382 3.32837 10.6969C3.32837 8.46568 4.92462 6.58568 7.12212 6.22443C7.64837 6.14193 8.11462 6.48818 8.19962 6.99693C8.28337 7.50818 7.93712 7.99068 7.42712 8.07443C6.13837 8.28568 5.20337 9.38818 5.20337 10.6944C5.20587 12.0069 6.18712 13.1357 7.48587 13.3169C7.99962 13.3882 8.35587 13.8619 8.28462 14.3757C8.21837 14.8444 7.81712 15.1832 7.35712 15.1832Z" fill="#9AA8BD"/>
<path fill-rule="evenodd" clip-rule="evenodd" d="M3.64012 23.164C3.52887 23.164 3.41637 23.144 3.30637 23.1028C1.51762 22.4203 1.25012 21.179 1.25012 20.5003C1.25012 19.3878 1.88637 17.964 4.91637 17.5103C5.43262 17.4453 5.90512 17.7853 5.98262 18.2978C6.05887 18.8115 5.70512 19.2878 5.19387 19.3653C3.82137 19.5703 3.12512 19.9528 3.12512 20.5003C3.12512 20.6715 3.12512 21.0265 3.97387 21.3503C4.45762 21.534 4.70137 22.0765 4.51637 22.5603C4.37387 22.934 4.01762 23.164 3.64012 23.164Z" fill="#9AA8BD"/>
</svg>
