<svg width="30" height="30" viewBox="0 0 30 30" fill="none" xmlns="http://www.w3.org/2000/svg">
<path fill-rule="evenodd" clip-rule="evenodd" d="M22.3584 15.1831C21.8984 15.1831 21.4972 14.8443 21.4309 14.3756C21.3597 13.8618 21.7159 13.3881 22.2297 13.3168C23.5297 13.1343 24.5109 12.0068 24.5134 10.6918C24.5134 9.38807 23.5784 8.28557 22.2897 8.07432C21.7797 7.99057 21.4334 7.50807 21.5172 6.99682C21.6022 6.48557 22.0809 6.14307 22.5947 6.22432C24.7922 6.58557 26.3884 8.46557 26.3884 10.6943C26.3834 12.9381 24.7072 14.8631 22.4884 15.1743C22.4447 15.1806 22.4009 15.1831 22.3584 15.1831Z" fill="#028E76"/>
<mask id="mask0_335_3975" style="mask-type:luminance" maskUnits="userSpaceOnUse" x="23" y="17" width="6" height="7">
<path fill-rule="evenodd" clip-rule="evenodd" d="M23.7227 17.502H28.4651V23.1639H23.7227V17.502Z" fill="white"/>
</mask>
<g mask="url(#mask0_335_3975)">
<path fill-rule="evenodd" clip-rule="evenodd" d="M26.0767 23.1639C25.6992 23.1639 25.343 22.9339 25.2005 22.5602C25.0155 22.0764 25.2592 21.5339 25.743 21.3502C26.5905 21.0277 26.5905 20.6714 26.5905 20.5002C26.5905 19.9527 25.8942 19.5702 24.5217 19.3652C24.0105 19.2877 23.6567 18.8114 23.733 18.2977C23.8092 17.7852 24.2842 17.4439 24.8005 17.5102C27.8292 17.9639 28.4655 19.3864 28.4655 20.5002C28.4655 21.1802 28.198 22.4214 26.4105 23.1027C26.3005 23.1439 26.188 23.1639 26.0767 23.1639Z" fill="#028E76"/>
</g>
<path fill-rule="evenodd" clip-rule="evenodd" d="M14.8584 19.8926C11.8884 19.8926 8.34717 20.2576 8.34717 21.9951C8.34717 23.7463 11.8884 24.1138 14.8584 24.1138C17.8284 24.1138 21.3684 23.7501 21.3684 22.0163C21.3684 20.2613 17.8284 19.8926 14.8584 19.8926ZM14.8584 25.9888C12.7847 25.9888 6.47217 25.9888 6.47217 21.9951C6.47217 18.0176 12.7847 18.0176 14.8584 18.0176C16.9322 18.0176 23.2434 18.0176 23.2434 22.0163C23.2434 25.9888 17.1522 25.9888 14.8584 25.9888Z" fill="#028E76"/>
<path fill-rule="evenodd" clip-rule="evenodd" d="M14.8584 6.875C12.7434 6.875 11.0234 8.59625 11.0234 10.7112C11.0196 11.7362 11.4121 12.695 12.1309 13.4187C12.8496 14.1425 13.8071 14.5437 14.8271 14.5475L14.8584 15.485V14.5475C16.9734 14.5475 18.6946 12.8275 18.6946 10.7112C18.6946 8.59625 16.9734 6.875 14.8584 6.875ZM14.8584 16.4225H14.8246C13.2996 16.4175 11.8709 15.82 10.8009 14.74C9.72836 13.6613 9.14211 12.2288 9.14836 10.7075C9.14836 7.5625 11.7096 5 14.8584 5C18.0084 5 20.5696 7.5625 20.5696 10.7112C20.5696 13.86 18.0084 16.4225 14.8584 16.4225Z" fill="#028E76"/>
<path fill-rule="evenodd" clip-rule="evenodd" d="M7.35712 15.1833C7.31462 15.1833 7.27087 15.1808 7.22712 15.1746C5.00837 14.8633 3.33337 12.9383 3.32837 10.6971C3.32837 8.46581 4.92462 6.58581 7.12212 6.22456C7.64837 6.14206 8.11462 6.48831 8.19962 6.99706C8.28337 7.50831 7.93712 7.99081 7.42712 8.07456C6.13837 8.28581 5.20337 9.38831 5.20337 10.6946C5.20587 12.0071 6.18712 13.1358 7.48587 13.3171C7.99962 13.3883 8.35587 13.8621 8.28462 14.3758C8.21837 14.8446 7.81712 15.1833 7.35712 15.1833Z" fill="#028E76"/>
<path fill-rule="evenodd" clip-rule="evenodd" d="M3.64012 23.1641C3.52887 23.1641 3.41637 23.1441 3.30637 23.1029C1.51762 22.4204 1.25012 21.1791 1.25012 20.5004C1.25012 19.3879 1.88637 17.9641 4.91637 17.5104C5.43262 17.4454 5.90512 17.7854 5.98262 18.2979C6.05887 18.8116 5.70512 19.2879 5.19387 19.3654C3.82137 19.5704 3.12512 19.9529 3.12512 20.5004C3.12512 20.6716 3.12512 21.0266 3.97387 21.3504C4.45762 21.5341 4.70137 22.0766 4.51637 22.5604C4.37387 22.9341 4.01762 23.1641 3.64012 23.1641Z" fill="#028E76"/>
</svg>
